<svg width="594" height="840" viewBox="0 0 594 840" fill="none" xmlns="http://www.w3.org/2000/svg">
<path d="M407.127 618.407C392.74 663.108 339.613 748.501 242.197 732.471C144.78 716.44 93.7088 661.053 80.35 635.363C62.143 620.009 47.8979 599.594 39.8902 577.498C46.0177 596.282 51.5569 619.116 55.6876 646.153C83.8194 728.384 177.427 860.196 347.012 833.383C499.919 746.409 450.8 653.827 407.127 618.407Z" fill="white"/>
<path d="M308.207 223.423C307.411 222.717 306.294 222.431 305.327 222.874C291.742 229.084 294.605 257.44 294.605 250.014C294.605 246.372 317.657 252.021 343.929 258.669C348.787 253.612 357.046 248.325 366.348 242.37C401.324 219.981 451.05 188.15 390.171 123.619C393.871 132.251 386.575 143.657 382.464 148.281C385.547 192.982 342.388 234.6 331.598 234.6C323.468 234.6 315.156 229.586 308.207 223.423Z" fill="white"/>
<path d="M382.464 148.281C386.575 143.657 393.871 132.251 390.171 123.619C363.968 91.2495 295.838 45.624 232.949 122.077C224.728 132.867 200.887 150.438 171.293 134.408C139.623 117.253 78.5825 149.804 71.3395 180.804C69.7411 187.645 78.1724 189.424 83.8529 185.29C91.6412 179.622 102.262 174.734 114.691 174.716C118.307 174.71 122.077 175.117 125.974 176.037C128.277 176.581 128.819 179.529 127.103 181.16C124.69 183.452 122.063 186.258 119.413 189.525C108.008 203.578 96.153 226.157 98.8468 253.096C121.454 235.626 176.533 204.387 215.993 219.185C265.318 237.682 294.605 174.484 286.898 182.191C279.191 189.898 280.732 134.408 300.77 159.07C316.801 178.8 361.912 160.098 382.464 148.281Z" fill="white"/>
<path d="M450.286 800.293C498.069 771.007 583.463 679.756 542.77 549.045C493.503 390.792 299.633 413.292 286.094 414.863C285.654 414.914 285.405 414.943 285.356 414.943C274.233 415.449 255.449 408.393 267.775 376.444C267.912 376.089 268.053 375.731 268.198 375.37C268.331 375.037 268.525 374.732 268.768 374.468L269.533 373.638L315.479 323.752C319.167 319.748 317.815 315.047 312.376 314.824C311.644 314.793 310.859 314.769 310.019 314.752C254.539 313.596 427.773 316.081 441.696 316.281C442.35 316.291 442.901 316.253 443.505 316.003C452.058 312.462 476.809 281.345 515.933 180.144C516.423 178.875 516.916 177.596 517.411 176.305C517.836 175.198 518.87 174.447 520.052 174.364C521.336 174.275 522.687 174.162 524.092 174.023C540.42 172.413 563.925 167.389 571.314 156.459C574.041 152.425 569.815 148.281 564.946 148.281H497.785C494.196 148.281 490.946 150.334 489.406 153.576C469.454 195.568 430.554 270.771 416.375 273.135C407.108 274.679 372.108 265.81 343.929 258.669C317.657 252.021 294.605 246.372 294.605 250.014C294.605 257.44 291.742 229.084 305.327 222.874C306.294 222.431 307.411 222.717 308.207 223.423C315.156 229.586 323.468 234.6 331.598 234.6C342.388 234.6 385.547 192.982 382.464 148.281C361.912 160.098 316.801 178.8 300.77 159.07C280.732 134.408 279.191 189.898 286.898 182.191C294.605 174.484 265.318 237.682 215.993 219.185C176.533 204.387 121.454 235.626 98.8468 253.096L66.4416 271.999C63.606 273.653 60.3975 275.925 57.7707 277.898L57.755 277.91C36.1425 294.149 -61.2123 367.946 3.08747 427.097C3.20974 427.21 3.35667 427.309 3.50726 427.38C4.66916 427.921 5.97554 426.981 5.82788 425.708C3.39226 404.707 1.38834 370.613 10.8032 382.382C15.9582 388.826 19.407 392.498 21.6071 394.472C23.4722 396.145 25.0259 395.044 25.1773 392.543C25.8302 381.76 25.2218 363.985 18.694 356.369C14.0139 350.909 32.6231 339.528 52.7482 327.22C68.8386 317.379 85.898 306.945 92.7985 298.472C93.7655 297.284 94.5329 296.135 95.0703 295.032C95.5981 293.948 96.5379 293.051 97.7289 292.865L101.822 292.225L142.561 285.86C144.215 285.601 145.772 284.909 147.011 283.783C148.723 282.227 150.921 280.096 153.196 277.632C158.467 269.894 162.296 265.82 160.503 268.51C158.349 271.74 155.726 274.892 153.196 277.632C140.902 295.682 120.763 333.666 145.84 352.237C146.617 352.813 147.438 353.37 148.303 353.907C149.07 354.383 149.614 355.154 149.765 356.044C149.929 357 150.099 357.967 150.275 358.943C161.635 421.656 201.304 525.142 268.401 558.102C309.174 578.13 332.021 584.258 349.421 588.925C369.515 594.315 382.344 597.755 407.127 618.407C450.8 653.827 499.919 746.409 347.012 833.383C378.752 828.365 413.154 817.79 450.286 800.293Z" fill="white"/>
<path fill-rule="evenodd" clip-rule="evenodd" d="M-107.672 461.032C-107.68 460.722 -107.686 460.412 -107.692 460.105C-107.698 459.799 -107.761 459.498 -107.826 459.2C-107.942 458.676 -107.844 458.429 -107.537 458.427C-108.19 458.432 -108.014 459.229 -107.836 460.032C-107.758 460.387 -107.679 460.743 -107.672 461.032ZM38.0147 571.925C38.5954 573.793 39.221 575.651 39.8902 577.498C39.2708 575.599 38.6453 573.741 38.0147 571.925ZM88.3907 396.816C88.1701 396.571 88.0002 396.286 87.8385 395.998C87.6151 395.6 87.3779 395.354 87.1261 395.251C87.7352 395.501 88.0992 396.096 88.4632 396.691C88.662 397.016 88.8608 397.341 89.0996 397.61C88.8645 397.345 88.6282 397.081 88.3907 396.816ZM150.275 358.943C150.099 357.967 149.929 357 149.765 356.044C149.614 355.154 149.07 354.383 148.303 353.907C147.438 353.37 146.617 352.813 145.84 352.237C148.076 353.893 149.779 356.205 150.275 358.943ZM269.533 373.638C268.784 374.451 268.173 375.414 267.775 376.444C267.912 376.089 268.053 375.731 268.198 375.37C268.331 375.037 268.525 374.732 268.768 374.468L269.533 373.638ZM515.933 180.144C517.25 176.738 520.457 174.382 524.092 174.023C522.687 174.162 521.336 174.275 520.052 174.364C518.87 174.447 517.836 175.198 517.411 176.305C516.916 177.596 516.423 178.875 515.933 180.144ZM101.822 292.225C98.1499 292.799 95.1451 295.59 92.7985 298.472C93.7655 297.284 94.5329 296.135 95.0703 295.032C95.5981 293.948 96.5379 293.051 97.7289 292.865L101.822 292.225ZM114.691 174.716C121.988 174.705 124.01 183.859 119.413 189.525C122.063 186.258 124.69 183.452 127.103 181.16C128.819 179.529 128.277 176.581 125.974 176.037C122.077 175.117 118.307 174.71 114.691 174.716ZM160.503 268.51C162.296 265.82 158.467 269.894 153.196 277.632C155.726 274.892 158.349 271.74 160.503 268.51Z" fill="white"/>
<path d="M47.9806 485.847C30.7735 512.054 29.0691 543.149 38.0147 571.925C38.6453 573.741 39.2708 575.599 39.8902 577.498C47.8979 599.594 62.143 620.009 80.35 635.363C116.159 592.904 167.757 486.168 89.0996 397.61C88.8645 397.345 88.6282 397.081 88.3907 396.816C88.1701 396.571 88.0002 396.286 87.8385 395.998C87.6151 395.6 87.3779 395.354 87.1261 395.251C84.965 394.365 81.7305 403.972 76.9729 418.104C70.5028 437.323 61.2157 464.908 47.9806 485.847Z" fill="white"/>
<path d="M-107.672 461.032C-106.155 522.626 -71.5933 643.705 55.6876 646.153C51.5569 619.116 46.0177 596.282 39.8902 577.498C39.221 575.651 38.5954 573.793 38.0147 571.925C24.3992 532.709 8.37595 512.709 -1.52795 510.318C-51.7139 500.499 -85.5914 474.56 -100.012 463.518C-104.138 460.358 -106.672 458.419 -107.537 458.427C-107.844 458.429 -107.942 458.676 -107.826 459.2C-107.761 459.498 -107.698 459.799 -107.692 460.105C-107.686 460.412 -107.68 460.722 -107.672 461.032Z" fill="white"/>
<path d="M55.6876 646.153C83.8194 728.384 177.427 860.196 347.012 833.383M55.6876 646.153C-71.5933 643.705 -106.155 522.626 -107.672 461.032M55.6876 646.153C51.5569 619.116 46.0177 596.282 39.8902 577.498M382.464 148.281C385.547 192.982 342.388 234.6 331.598 234.6C323.468 234.6 315.156 229.586 308.207 223.423C307.411 222.717 306.294 222.431 305.327 222.874C291.742 229.084 294.605 257.44 294.605 250.014C294.605 246.372 317.657 252.021 343.929 258.669M382.464 148.281C386.575 143.657 393.871 132.251 390.171 123.619M382.464 148.281C361.912 160.098 316.801 178.8 300.77 159.07C280.732 134.408 279.191 189.898 286.898 182.191C294.605 174.484 265.318 237.682 215.993 219.185C176.533 204.387 121.454 235.626 98.8468 253.096M343.929 258.669C372.108 265.81 407.108 274.679 416.375 273.135C430.554 270.771 469.454 195.568 489.406 153.576M343.929 258.669C342.438 258.291 345.404 259.042 343.929 258.669ZM343.929 258.669C348.787 253.612 357.046 248.325 366.348 242.37C401.324 219.981 451.05 188.15 390.171 123.619M390.171 123.619C363.968 91.2495 295.838 45.624 232.949 122.077C224.728 132.867 200.887 150.438 171.293 134.408C139.623 117.253 78.5825 149.804 71.3395 180.804M98.8468 253.096L66.4416 271.999M98.8468 253.096C96.153 226.157 108.008 203.578 119.413 189.525M407.127 618.407C392.74 663.108 339.613 748.501 242.197 732.471C144.78 716.44 93.7088 661.053 80.35 635.363M407.127 618.407C450.8 653.827 499.919 746.409 347.012 833.383M407.127 618.407C382.344 597.755 369.515 594.314 349.421 588.925C332.021 584.258 309.174 578.131 268.401 558.102C201.304 525.142 161.635 421.656 150.275 358.943M80.35 635.363C116.159 592.904 167.757 486.168 89.0996 397.61M80.35 635.363C62.143 620.009 47.898 599.595 39.8902 577.498M347.012 833.383C378.752 828.365 413.154 817.79 450.286 800.293C498.069 771.007 583.463 679.756 542.77 549.045C493.503 390.792 299.633 413.292 286.094 414.863C285.654 414.914 285.405 414.943 285.356 414.943C274.233 415.449 255.449 408.393 267.775 376.444M-107.672 461.032C-107.679 460.743 -107.758 460.387 -107.836 460.032C-108.014 459.229 -108.19 458.432 -107.537 458.427M-107.672 461.032C-107.68 460.722 -107.686 460.412 -107.692 460.105C-107.698 459.799 -107.761 459.498 -107.826 459.2C-107.942 458.676 -107.844 458.429 -107.537 458.427M-107.537 458.427C-106.672 458.419 -104.138 460.358 -100.012 463.518C-85.5914 474.56 -51.7139 500.499 -1.52796 510.318C8.37596 512.709 24.3992 532.709 38.0147 571.925M38.0147 571.925C29.0691 543.149 30.7735 512.054 47.9806 485.847C61.2157 464.908 70.5028 437.323 76.9729 418.104C81.7305 403.972 84.965 394.365 87.1261 395.251M38.0147 571.925C38.6453 573.741 39.2708 575.599 39.8902 577.498M38.0147 571.925C38.5954 573.793 39.221 575.651 39.8902 577.498M87.1261 395.251C87.7352 395.501 88.0992 396.096 88.4632 396.691C88.662 397.016 88.8608 397.341 89.0996 397.61M87.1261 395.251C87.3779 395.354 87.6151 395.6 87.8385 395.998C88.0002 396.286 88.1701 396.571 88.3907 396.816C88.6282 397.081 88.8645 397.345 89.0996 397.61M150.275 358.943C149.779 356.205 148.076 353.893 145.84 352.237M150.275 358.943C150.099 357.967 149.929 357 149.765 356.044C149.614 355.154 149.07 354.383 148.303 353.907C147.438 353.37 146.617 352.813 145.84 352.237M145.84 352.237C120.763 333.666 140.902 295.682 153.196 277.632M153.196 277.632C150.921 280.096 148.723 282.227 147.011 283.783M153.196 277.632C155.726 274.892 158.349 271.74 160.503 268.51C162.296 265.82 158.467 269.894 153.196 277.632ZM147.011 283.783C145.772 284.909 144.215 285.601 142.561 285.86M147.011 283.783C146.542 284.209 146.109 284.593 145.721 284.928C145.31 285.283 144.805 285.509 144.269 285.593L142.561 285.86M142.561 285.86L101.821 292.225M101.821 292.225C98.1499 292.799 95.1451 295.59 92.7985 298.472M101.821 292.225L97.7289 292.865C96.5379 293.051 95.5981 293.948 95.0703 295.032C94.5329 296.135 93.7655 297.284 92.7985 298.472M92.7985 298.472C85.898 306.945 68.8386 317.379 52.7482 327.22C32.6231 339.528 14.0139 350.909 18.694 356.369C25.2218 363.985 25.8302 381.76 25.1773 392.543M25.1773 392.543C25.0259 395.044 23.4722 396.145 21.6071 394.472M25.1773 392.543C25.1207 393.479 25.0546 394.361 24.982 395.18C24.9103 395.99 24.3804 396.526 23.6878 396.1C23.1769 395.786 22.4933 395.267 21.6071 394.472M21.6071 394.472C19.407 392.498 15.9582 388.826 10.8032 382.382C1.38834 370.613 3.39225 404.707 5.82788 425.708M5.82788 425.708C5.97554 426.981 4.66916 427.921 3.50725 427.38M5.82788 425.708C5.97503 426.977 4.6651 427.919 3.50725 427.38M3.50725 427.38C3.35667 427.309 3.20974 427.21 3.08747 427.097M3.50725 427.38C3.35666 427.309 3.21759 427.217 3.09531 427.104C3.0927 427.102 3.09009 427.099 3.08747 427.097M3.08747 427.097C-61.2123 367.946 36.1425 294.149 57.755 277.91L57.7707 277.898M66.4416 271.999L63.3416 273.807C62.42 274.345 61.4009 275.144 60.5555 275.795C59.8707 276.322 58.9301 277.027 57.7707 277.898M66.4416 271.999C63.606 273.653 60.3975 275.925 57.7707 277.898M119.413 189.525C124.01 183.859 121.988 174.705 114.691 174.716M119.413 189.525C122.063 186.258 124.69 183.452 127.103 181.16C128.819 179.529 128.277 176.581 125.974 176.037C122.077 175.117 118.308 174.71 114.691 174.716M114.691 174.716C102.262 174.734 91.6412 179.622 83.8529 185.29M83.8529 185.29C78.1724 189.424 69.7411 187.645 71.3395 180.804M83.8529 185.29C80.7333 187.56 78.0681 189.955 75.923 192.213C74.3532 193.865 71.5349 193.494 71.0812 191.261C70.3875 187.846 70.5146 184.335 71.3395 180.804M489.406 153.576C490.946 150.334 494.196 148.281 497.785 148.281M489.406 153.576C489.985 152.358 490.547 151.168 491.093 150.008C491.589 148.955 492.647 148.281 493.812 148.281H497.785M497.785 148.281H564.946M564.946 148.281C569.815 148.281 574.041 152.425 571.314 156.459M564.946 148.281H570.791C572.371 148.281 573.723 149.519 573.481 151.08C573.182 153.014 572.433 154.804 571.314 156.459M571.314 156.459C563.925 167.389 540.42 172.413 524.092 174.023M524.092 174.023C520.457 174.382 517.25 176.738 515.933 180.144M524.092 174.023C522.687 174.162 521.336 174.275 520.052 174.364C518.87 174.447 517.835 175.198 517.411 176.305C516.916 177.596 516.423 178.875 515.933 180.144M515.933 180.144C476.809 281.345 452.058 312.462 443.505 316.003M443.505 316.003C442.901 316.253 442.35 316.291 441.696 316.281M443.505 316.003C443.289 316.092 443.084 316.164 442.889 316.219C442.685 316.276 442.472 316.292 442.26 316.289C442.118 316.287 441.93 316.284 441.696 316.281M441.696 316.281C427.772 316.081 254.539 313.596 310.019 314.752C310.859 314.769 311.644 314.793 312.376 314.824M312.376 314.824C317.815 315.047 319.167 319.748 315.479 323.752M312.376 314.824C315.512 314.953 317.691 315.186 319.193 315.43C320.936 315.712 321.317 317.414 320.121 318.713L315.479 323.752M315.479 323.752L269.533 373.638M269.533 373.638C268.784 374.451 268.173 375.414 267.775 376.444M269.533 373.638L268.768 374.468C268.525 374.732 268.331 375.037 268.198 375.37C268.053 375.731 267.912 376.089 267.775 376.444" stroke="#164665" stroke-width="6"/>
<path d="M528.721 47.4513C490.492 46.2183 489.156 96.2592 493.267 121.434L476.311 122.975C470.145 132.84 473.742 143.526 476.311 147.636H584.214C589.147 135.306 586.269 127.085 584.214 124.517C585.447 122.051 573.424 121.434 567.258 121.434C567.258 101.397 576.506 48.9926 528.721 47.4513Z" fill="white" stroke="#164665" stroke-width="6"/>
<mask id="path-4-inside-1_469_3139" fill="white">
<path fill-rule="evenodd" clip-rule="evenodd" d="M519.289 74.7035C516.243 77.727 514.72 81.356 514.72 85.5906V101.006C514.72 101.946 514.402 102.738 513.765 103.384C513.128 104.03 512.336 104.35 511.387 104.346C510.439 104.341 509.644 104.021 509.003 103.384C508.361 102.747 508.041 101.955 508.041 101.006V85.5906C508.041 79.4457 510.216 74.2271 514.567 69.9346C518.922 65.6466 524.154 63.5026 530.264 63.5026C531.204 63.5026 531.996 63.821 532.642 64.4577C533.288 65.0945 533.608 65.887 533.604 66.8355C533.6 67.7839 533.279 68.5787 532.642 69.2199C532.005 69.8611 531.213 70.1817 530.264 70.1817C525.989 70.1817 522.331 71.689 519.289 74.7035Z"/>
<path fill-rule="evenodd" clip-rule="evenodd" d="M480.941 151.487C477.971 151.487 475.43 150.43 473.319 148.315C471.209 146.199 470.151 143.664 470.146 140.707V130.555C470.146 127.589 471.204 125.051 473.319 122.94C475.435 120.83 477.973 119.772 480.934 119.768H489.03V85.6039C489.03 74.187 493.031 64.5022 501.034 56.5496C509.036 48.5969 518.779 44.6206 530.264 44.6206C541.749 44.6206 551.492 48.5969 559.495 56.5496C567.497 64.5022 571.498 74.1848 571.498 85.5972V119.761H579.594C582.56 119.761 585.098 120.819 587.209 122.934C589.32 125.049 590.377 127.587 590.382 130.548V140.7C590.382 143.666 589.324 146.204 587.209 148.315C585.094 150.425 582.555 151.483 579.594 151.487H480.941ZM579.594 144.808H480.941C479.739 144.808 478.752 144.423 477.982 143.652C477.211 142.882 476.826 141.896 476.826 140.694V130.555C476.826 129.352 477.211 128.366 477.982 127.596C478.752 126.825 479.739 126.44 480.941 126.44H579.587C580.79 126.44 581.776 126.825 582.546 127.596C583.317 128.366 583.702 129.35 583.702 130.548V140.7C583.702 141.898 583.317 142.882 582.546 143.652C581.776 144.423 580.792 144.808 579.594 144.808ZM564.818 119.761H495.71V85.5972C495.701 76.006 499.063 67.893 505.796 61.2584C512.529 54.6238 520.679 51.3042 530.244 51.2998C539.809 51.2953 547.963 54.6149 554.705 61.2584C561.447 67.9019 564.818 76.0149 564.818 85.5972V119.761Z"/>
</mask>
<path fill-rule="evenodd" clip-rule="evenodd" d="M519.289 74.7035C516.243 77.727 514.72 81.356 514.72 85.5906V101.006C514.72 101.946 514.402 102.738 513.765 103.384C513.128 104.03 512.336 104.35 511.387 104.346C510.439 104.341 509.644 104.021 509.003 103.384C508.361 102.747 508.041 101.955 508.041 101.006V85.5906C508.041 79.4457 510.216 74.2271 514.567 69.9346C518.922 65.6466 524.154 63.5026 530.264 63.5026C531.204 63.5026 531.996 63.821 532.642 64.4577C533.288 65.0945 533.608 65.887 533.604 66.8355C533.6 67.7839 533.279 68.5787 532.642 69.2199C532.005 69.8611 531.213 70.1817 530.264 70.1817C525.989 70.1817 522.331 71.689 519.289 74.7035Z" stroke="#164665" stroke-width="12" mask="url(#path-4-inside-1_469_3139)"/>
<path fill-rule="evenodd" clip-rule="evenodd" d="M480.941 151.487C477.971 151.487 475.43 150.43 473.319 148.315C471.209 146.199 470.151 143.664 470.146 140.707V130.555C470.146 127.589 471.204 125.051 473.319 122.94C475.435 120.83 477.973 119.772 480.934 119.768H489.03V85.6039C489.03 74.187 493.031 64.5022 501.034 56.5496C509.036 48.5969 518.779 44.6206 530.264 44.6206C541.749 44.6206 551.492 48.5969 559.495 56.5496C567.497 64.5022 571.498 74.1848 571.498 85.5972V119.761H579.594C582.56 119.761 585.098 120.819 587.209 122.934C589.32 125.049 590.377 127.587 590.382 130.548V140.7C590.382 143.666 589.324 146.204 587.209 148.315C585.094 150.425 582.555 151.483 579.594 151.487H480.941ZM579.594 144.808H480.941C479.739 144.808 478.752 144.423 477.982 143.652C477.211 142.882 476.826 141.896 476.826 140.694V130.555C476.826 129.352 477.211 128.366 477.982 127.596C478.752 126.825 479.739 126.44 480.941 126.44H579.587C580.79 126.44 581.776 126.825 582.546 127.596C583.317 128.366 583.702 129.35 583.702 130.548V140.7C583.702 141.898 583.317 142.882 582.546 143.652C581.776 144.423 580.792 144.808 579.594 144.808ZM564.818 119.761H495.71V85.5972C495.701 76.006 499.063 67.893 505.796 61.2584C512.529 54.6238 520.679 51.3042 530.244 51.2998C539.809 51.2953 547.963 54.6149 554.705 61.2584C561.447 67.9019 564.818 76.0149 564.818 85.5972V119.761Z" stroke="#164665" stroke-width="12" mask="url(#path-4-inside-1_469_3139)"/>
<mask id="path-5-inside-2_469_3139" fill="white">
<path d="M530.262 0C531.553 0 532.791 0.5127 533.704 1.42531C534.616 2.33792 535.129 3.57569 535.129 4.86632V24.3316C535.129 25.6222 534.616 26.86 533.704 27.7726C532.791 28.6852 531.553 29.1979 530.262 29.1979C528.972 29.1979 527.734 28.6852 526.821 27.7726C525.909 26.86 525.396 25.6222 525.396 24.3316V4.86632C525.396 3.57569 525.909 2.33792 526.821 1.42531C527.734 0.5127 528.972 0 530.262 0ZM592.102 27.7705L582.368 37.5031C581.923 37.9812 581.385 38.3647 580.788 38.6307C580.191 38.8966 579.547 39.0397 578.894 39.0512C578.24 39.0627 577.591 38.9425 576.985 38.6978C576.379 38.453 575.829 38.0887 575.366 37.6266C574.904 37.1645 574.54 36.6141 574.295 36.0082C574.05 35.4022 573.93 34.7532 573.942 34.0998C573.953 33.4464 574.096 32.802 574.362 32.2051C574.628 31.6081 575.012 31.0709 575.49 30.6254L585.223 20.8927C585.669 20.4146 586.206 20.0311 586.803 19.7652C587.4 19.4992 588.045 19.3562 588.698 19.3446C589.351 19.3331 590.001 19.4533 590.606 19.6981C591.212 19.9428 591.763 20.3071 592.225 20.7692C592.687 21.2313 593.052 21.7817 593.296 22.3877C593.541 22.9936 593.661 23.6427 593.65 24.2961C593.638 24.9495 593.495 25.5938 593.229 26.1908C592.963 26.7877 592.58 27.325 592.102 27.7705ZM475.302 20.8927C474.379 20.0331 473.159 19.5652 471.898 19.5874C470.637 19.6097 469.434 20.1204 468.543 21.012C467.651 21.9036 467.14 23.1064 467.118 24.3671C467.096 25.6278 467.564 26.848 468.423 27.7705L478.157 37.5031C479.079 38.3627 480.299 38.8307 481.56 38.8084C482.821 38.7862 484.024 38.2755 484.916 37.3839C485.807 36.4923 486.318 35.2894 486.34 34.0287C486.363 32.768 485.895 31.5479 485.035 30.6254L475.302 20.8927Z"/>
</mask>
<path d="M530.262 0C531.553 0 532.791 0.5127 533.704 1.42531C534.616 2.33792 535.129 3.57569 535.129 4.86632V24.3316C535.129 25.6222 534.616 26.86 533.704 27.7726C532.791 28.6852 531.553 29.1979 530.262 29.1979C528.972 29.1979 527.734 28.6852 526.821 27.7726C525.909 26.86 525.396 25.6222 525.396 24.3316V4.86632C525.396 3.57569 525.909 2.33792 526.821 1.42531C527.734 0.5127 528.972 0 530.262 0ZM592.102 27.7705L582.368 37.5031C581.923 37.9812 581.385 38.3647 580.788 38.6307C580.191 38.8966 579.547 39.0397 578.894 39.0512C578.24 39.0627 577.591 38.9425 576.985 38.6978C576.379 38.453 575.829 38.0887 575.366 37.6266C574.904 37.1645 574.54 36.6141 574.295 36.0082C574.05 35.4022 573.93 34.7532 573.942 34.0998C573.953 33.4464 574.096 32.802 574.362 32.2051C574.628 31.6081 575.012 31.0709 575.49 30.6254L585.223 20.8927C585.669 20.4146 586.206 20.0311 586.803 19.7652C587.4 19.4992 588.045 19.3562 588.698 19.3446C589.351 19.3331 590.001 19.4533 590.606 19.6981C591.212 19.9428 591.763 20.3071 592.225 20.7692C592.687 21.2313 593.052 21.7817 593.296 22.3877C593.541 22.9936 593.661 23.6427 593.65 24.2961C593.638 24.9495 593.495 25.5938 593.229 26.1908C592.963 26.7877 592.58 27.325 592.102 27.7705ZM475.302 20.8927C474.379 20.0331 473.159 19.5652 471.898 19.5874C470.637 19.6097 469.434 20.1204 468.543 21.012C467.651 21.9036 467.14 23.1064 467.118 24.3671C467.096 25.6278 467.564 26.848 468.423 27.7705L478.157 37.5031C479.079 38.3627 480.299 38.8307 481.56 38.8084C482.821 38.7862 484.024 38.2755 484.916 37.3839C485.807 36.4923 486.318 35.2894 486.34 34.0287C486.363 32.768 485.895 31.5479 485.035 30.6254L475.302 20.8927Z" stroke="#164665" stroke-width="12" mask="url(#path-5-inside-2_469_3139)"/>
</svg>
