<svg width="705" height="840" viewBox="0 0 705 840" fill="none" xmlns="http://www.w3.org/2000/svg">
<path d="M518.126 618.407C503.74 663.108 450.613 748.501 353.196 732.471C255.78 716.44 204.708 661.053 191.349 635.363C173.142 620.009 158.897 599.594 150.89 577.497C157.017 596.282 162.556 619.115 166.687 646.153C194.819 728.384 288.426 860.196 458.012 833.383C610.919 746.409 561.799 653.827 518.126 618.407Z" fill="white"/>
<path d="M419.207 223.423C418.411 222.717 417.294 222.431 416.326 222.874C402.741 229.084 405.604 257.44 405.604 250.014C405.604 246.372 428.656 252.021 454.929 258.669C459.786 253.612 468.045 248.325 477.348 242.37C512.324 219.981 562.049 188.15 501.171 123.619C504.87 132.251 497.574 143.657 493.464 148.281C496.547 192.982 453.388 234.6 442.598 234.6C434.468 234.6 426.156 229.586 419.207 223.423Z" fill="white"/>
<path d="M493.464 148.281C497.574 143.657 504.87 132.251 501.171 123.619C474.967 91.2494 406.837 45.6239 343.948 122.077C335.727 132.867 311.887 150.438 282.292 134.408C250.622 117.253 189.582 149.804 182.339 180.804C180.741 187.645 189.172 189.424 194.852 185.29C202.641 179.622 213.261 174.733 225.691 174.715C229.307 174.71 233.076 175.117 236.973 176.037C239.277 176.581 239.819 179.529 238.103 181.159C235.689 183.452 233.063 186.258 230.412 189.524C219.007 203.578 207.152 226.157 209.846 253.095C232.453 235.626 287.533 204.387 326.993 219.185C376.317 237.681 405.604 174.484 397.897 182.191C390.19 189.898 391.732 134.408 411.77 159.07C427.8 178.8 472.912 160.098 493.464 148.281Z" fill="white"/>
<path d="M561.285 800.293C609.069 771.006 694.462 679.756 653.769 549.045C604.502 390.792 410.633 413.292 397.093 414.863C396.654 414.914 396.404 414.943 396.356 414.943C385.233 415.449 366.448 408.393 378.775 376.444C378.912 376.089 379.052 375.731 379.197 375.369C379.33 375.037 379.525 374.732 379.767 374.468L380.532 373.638L426.479 323.752C430.167 319.748 428.814 315.047 423.375 314.824C422.643 314.793 421.858 314.769 421.018 314.751C365.538 313.596 538.772 316.081 552.696 316.281C553.349 316.29 553.9 316.253 554.504 316.003C563.057 312.462 587.809 281.345 626.932 180.144C627.423 178.875 627.916 177.595 628.411 176.304C628.835 175.198 629.87 174.447 631.051 174.364C632.335 174.275 633.687 174.162 635.091 174.023C651.42 172.413 674.925 167.389 682.314 156.459C685.041 152.425 680.814 148.281 675.945 148.281H608.784C605.196 148.281 601.945 150.334 600.405 153.576C580.454 195.568 541.554 270.771 527.375 273.135C518.107 274.679 483.107 265.81 454.929 258.669C428.656 252.021 405.604 246.372 405.604 250.014C405.604 257.44 402.741 229.084 416.326 222.874C417.294 222.431 418.411 222.717 419.207 223.423C426.156 229.586 434.468 234.6 442.598 234.6C453.388 234.6 496.547 192.982 493.464 148.281C472.912 160.098 427.8 178.8 411.77 159.07C391.732 134.408 390.19 189.898 397.897 182.191C405.604 174.484 376.317 237.681 326.993 219.185C287.533 204.387 232.453 235.626 209.846 253.095L177.441 271.999C174.605 273.653 171.397 275.925 168.77 277.898L168.754 277.91C147.142 294.149 49.7872 367.946 114.087 427.097C114.209 427.209 114.356 427.309 114.507 427.379C115.669 427.921 116.975 426.981 116.827 425.708C114.392 404.707 112.388 370.613 121.803 382.382C126.958 388.826 130.406 392.498 132.607 394.472C134.472 396.145 136.025 395.044 136.177 392.543C136.83 381.759 136.221 363.985 129.693 356.369C125.013 350.909 143.623 339.528 163.748 327.219C179.838 317.379 196.897 306.945 203.798 298.472C204.765 297.284 205.532 296.135 206.07 295.032C206.598 293.948 207.537 293.051 208.728 292.865L212.821 292.225L253.561 285.86C255.215 285.601 256.772 284.909 258.011 283.783C259.722 282.227 261.921 280.096 264.196 277.632C269.466 269.894 273.295 265.82 271.502 268.509C269.349 271.74 266.725 274.892 264.196 277.632C251.901 295.682 231.762 333.666 256.839 352.237C257.616 352.813 258.437 353.37 259.303 353.907C260.07 354.383 260.613 355.154 260.765 356.044C260.928 357 261.098 357.967 261.275 358.943C272.634 421.656 312.303 525.142 379.4 558.101C420.173 578.13 443.021 584.258 460.421 588.925C480.515 594.314 493.344 597.755 518.126 618.407C561.799 653.827 610.919 746.409 458.012 833.383C489.752 828.365 524.153 817.79 561.285 800.293Z" fill="white"/>
<path fill-rule="evenodd" clip-rule="evenodd" d="M3.32748 461.032C3.31983 460.721 3.31302 460.412 3.30704 460.105C3.30111 459.799 3.23857 459.498 3.173 459.2C3.05793 458.676 3.15537 458.429 3.46203 458.426C2.80928 458.432 2.98558 459.229 3.163 460.032C3.24158 460.387 3.32037 460.743 3.32748 461.032ZM149.014 571.925C149.595 573.793 150.22 575.651 150.89 577.497C150.27 575.599 149.645 573.741 149.014 571.925ZM199.39 396.816C199.17 396.571 199 396.286 198.838 395.998C198.615 395.6 198.377 395.354 198.126 395.251C198.735 395.501 199.099 396.096 199.463 396.691C199.661 397.016 199.86 397.341 200.099 397.61C199.864 397.345 199.628 397.081 199.39 396.816ZM261.275 358.943C261.098 357.967 260.928 357 260.765 356.044C260.613 355.154 260.07 354.383 259.303 353.907C258.437 353.37 257.616 352.813 256.839 352.237C259.075 353.893 260.779 356.205 261.275 358.943ZM380.532 373.638C379.784 374.451 379.172 375.413 378.775 376.444C378.912 376.089 379.052 375.731 379.197 375.369C379.33 375.037 379.525 374.732 379.767 374.468L380.532 373.638ZM626.932 180.144C628.249 176.737 631.456 174.381 635.091 174.023C633.687 174.162 632.335 174.275 631.051 174.364C629.87 174.447 628.835 175.198 628.411 176.304C627.916 177.595 627.423 178.875 626.932 180.144ZM212.821 292.225C209.149 292.799 206.145 295.59 203.798 298.472C204.765 297.284 205.532 296.135 206.07 295.032C206.598 293.948 207.537 293.051 208.728 292.865L212.821 292.225ZM225.691 174.715C232.987 174.705 235.01 183.859 230.412 189.524C233.063 186.258 235.689 183.452 238.103 181.159C239.819 179.529 239.277 176.581 236.973 176.037C233.076 175.117 229.307 174.71 225.691 174.715ZM271.502 268.509C273.295 265.82 269.466 269.894 264.196 277.632C266.725 274.892 269.349 271.74 271.502 268.509Z" fill="white"/>
<path d="M158.98 485.847C141.773 512.054 140.069 543.149 149.014 571.925C149.645 573.741 150.27 575.599 150.89 577.497C158.897 599.594 173.142 620.009 191.349 635.363C227.158 592.903 278.756 486.168 200.099 397.61C199.864 397.345 199.628 397.081 199.39 396.816C199.17 396.571 199 396.286 198.838 395.998C198.615 395.6 198.377 395.354 198.126 395.251C195.964 394.365 192.73 403.972 187.972 418.104C181.502 437.323 172.215 464.908 158.98 485.847Z" fill="white"/>
<path d="M3.32748 461.032C4.84426 522.626 39.4062 643.705 166.687 646.153C162.556 619.115 157.017 596.282 150.89 577.497C150.22 575.651 149.595 573.793 149.014 571.925C135.399 532.709 119.375 512.709 109.472 510.318C59.2856 500.499 25.4081 474.56 10.988 463.518C6.86102 460.358 4.32778 458.419 3.46203 458.426C3.15537 458.429 3.05793 458.676 3.173 459.2C3.23857 459.498 3.30111 459.799 3.30704 460.105C3.31302 460.412 3.31983 460.721 3.32748 461.032Z" fill="white"/>
<path d="M166.687 646.153C194.819 728.384 288.426 860.196 458.012 833.383M166.687 646.153C39.4062 643.705 4.84426 522.626 3.32748 461.032M166.687 646.153C162.556 619.115 157.017 596.282 150.89 577.497M493.464 148.281C496.547 192.982 453.388 234.6 442.598 234.6C434.468 234.6 426.156 229.586 419.207 223.423C418.411 222.717 417.294 222.431 416.326 222.874C402.741 229.084 405.604 257.44 405.604 250.014C405.604 246.372 428.656 252.021 454.929 258.669M493.464 148.281C497.574 143.657 504.87 132.251 501.171 123.619M493.464 148.281C472.912 160.098 427.8 178.8 411.77 159.07C391.732 134.408 390.19 189.898 397.897 182.191C405.604 174.484 376.317 237.681 326.993 219.185C287.533 204.387 232.453 235.626 209.846 253.095M454.929 258.669C483.107 265.81 518.107 274.679 527.375 273.135C541.554 270.771 580.454 195.568 600.405 153.576M454.929 258.669C453.437 258.291 456.404 259.042 454.929 258.669ZM454.929 258.669C459.786 253.612 468.045 248.325 477.348 242.37C512.324 219.981 562.049 188.15 501.171 123.619M501.171 123.619C474.967 91.2494 406.837 45.6239 343.948 122.077C335.727 132.867 311.887 150.438 282.292 134.408C250.622 117.253 189.582 149.804 182.339 180.804M209.846 253.095L177.441 271.999M209.846 253.095C207.152 226.157 219.007 203.578 230.412 189.524M518.126 618.407C503.74 663.108 450.613 748.501 353.196 732.471C255.78 716.44 204.708 661.053 191.349 635.363M518.126 618.407C561.799 653.827 610.919 746.409 458.012 833.383M518.126 618.407C493.344 597.755 480.515 594.314 460.421 588.925C443.021 584.258 420.173 578.13 379.4 558.101C312.303 525.142 272.634 421.656 261.275 358.943M191.349 635.363C227.158 592.903 278.756 486.168 200.099 397.61M191.349 635.363C173.142 620.009 158.897 599.594 150.89 577.497M458.012 833.383C489.752 828.365 524.153 817.79 561.285 800.293C609.069 771.006 694.462 679.756 653.769 549.045C604.502 390.792 410.633 413.292 397.093 414.863C396.654 414.914 396.404 414.943 396.356 414.943C385.233 415.449 366.448 408.393 378.775 376.444M3.32748 461.032C3.32037 460.743 3.24158 460.387 3.163 460.032C2.98558 459.229 2.80928 458.432 3.46203 458.426M3.32748 461.032C3.31983 460.721 3.31302 460.412 3.30704 460.105C3.30111 459.799 3.23857 459.498 3.173 459.2C3.05793 458.676 3.15537 458.429 3.46203 458.426M3.46203 458.426C4.32778 458.419 6.86102 460.358 10.988 463.518C25.4081 474.56 59.2856 500.499 109.471 510.318C119.375 512.709 135.399 532.709 149.014 571.925M149.014 571.925C140.069 543.149 141.773 512.054 158.98 485.847C172.215 464.908 181.502 437.323 187.972 418.104C192.73 403.972 195.964 394.365 198.126 395.251M149.014 571.925C149.645 573.741 150.27 575.599 150.89 577.497M149.014 571.925C149.595 573.793 150.22 575.651 150.89 577.497M198.126 395.251C198.735 395.501 199.099 396.096 199.463 396.691C199.661 397.016 199.86 397.341 200.099 397.61M198.126 395.251C198.377 395.354 198.615 395.6 198.838 395.998C199 396.286 199.17 396.571 199.39 396.816C199.628 397.081 199.864 397.345 200.099 397.61M261.275 358.943C260.779 356.205 259.075 353.893 256.839 352.237M261.275 358.943C261.098 357.967 260.928 357 260.765 356.044C260.613 355.154 260.07 354.383 259.303 353.907C258.437 353.37 257.616 352.813 256.839 352.237M256.839 352.237C231.762 333.666 251.901 295.682 264.196 277.632M264.196 277.632C261.921 280.096 259.722 282.227 258.011 283.783M264.196 277.632C266.725 274.892 269.349 271.74 271.502 268.509C273.295 265.82 269.466 269.894 264.196 277.632ZM258.011 283.783C256.772 284.909 255.215 285.601 253.561 285.86M258.011 283.783C257.541 284.209 257.108 284.593 256.721 284.928C256.31 285.283 255.805 285.509 255.268 285.593L253.561 285.86M253.561 285.86L212.821 292.225M212.821 292.225C209.149 292.799 206.145 295.59 203.798 298.472M212.821 292.225L208.728 292.865C207.537 293.051 206.598 293.948 206.07 295.032C205.532 296.135 204.765 297.284 203.798 298.472M203.798 298.472C196.897 306.945 179.838 317.379 163.748 327.219C143.623 339.528 125.013 350.909 129.693 356.369C136.221 363.985 136.83 381.759 136.177 392.543M136.177 392.543C136.025 395.044 134.472 396.145 132.607 394.472M136.177 392.543C136.12 393.478 136.054 394.361 135.981 395.18C135.91 395.99 135.38 396.526 134.687 396.1C134.176 395.786 133.493 395.267 132.607 394.472M132.607 394.472C130.406 392.498 126.958 388.826 121.803 382.382C112.388 370.613 114.392 404.707 116.827 425.708M116.827 425.708C116.975 426.981 115.669 427.921 114.507 427.379M116.827 425.708C116.974 426.977 115.665 427.919 114.507 427.379M114.507 427.379C114.356 427.309 114.209 427.209 114.087 427.097M114.507 427.379C114.356 427.309 114.217 427.217 114.095 427.104C114.092 427.102 114.09 427.099 114.087 427.097M114.087 427.097C49.7872 367.946 147.142 294.149 168.754 277.91L168.77 277.898M177.441 271.999L174.341 273.807C173.419 274.344 172.4 275.144 171.555 275.795C170.87 276.322 169.93 277.027 168.77 277.898M177.441 271.999C174.605 273.653 171.397 275.925 168.77 277.898M230.412 189.524C235.01 183.859 232.987 174.705 225.691 174.715M230.412 189.524C233.063 186.258 235.689 183.452 238.103 181.159C239.819 179.529 239.277 176.581 236.973 176.037C233.076 175.117 229.307 174.71 225.691 174.715M225.691 174.715C213.261 174.733 202.641 179.622 194.852 185.29M194.852 185.29C189.172 189.424 180.741 187.645 182.339 180.804M194.852 185.29C191.733 187.56 189.068 189.955 186.922 192.213C185.353 193.865 182.534 193.494 182.081 191.261C181.387 187.846 181.514 184.335 182.339 180.804M600.405 153.576C601.945 150.334 605.196 148.281 608.784 148.281M600.405 153.576C600.984 152.358 601.547 151.167 602.093 150.008C602.588 148.955 603.647 148.281 604.811 148.281H608.784M608.784 148.281H675.945M675.945 148.281C680.814 148.281 685.041 152.425 682.314 156.459M675.945 148.281H681.791C683.37 148.281 684.722 149.519 684.481 151.08C684.182 153.014 683.432 154.804 682.314 156.459M682.314 156.459C674.925 167.389 651.42 172.413 635.091 174.023M635.091 174.023C631.456 174.381 628.249 176.737 626.932 180.144M635.091 174.023C633.687 174.162 632.335 174.275 631.051 174.364C629.87 174.447 628.835 175.198 628.411 176.304C627.916 177.595 627.423 178.875 626.932 180.144M626.932 180.144C587.809 281.345 563.057 312.462 554.504 316.003M554.504 316.003C553.9 316.253 553.349 316.29 552.696 316.281M554.504 316.003C554.289 316.092 554.083 316.164 553.888 316.219C553.684 316.276 553.472 316.292 553.26 316.289C553.118 316.287 552.929 316.284 552.696 316.281M552.696 316.281C538.772 316.081 365.538 313.596 421.018 314.751C421.858 314.769 422.643 314.793 423.375 314.823M423.375 314.823C428.814 315.047 430.167 319.748 426.479 323.752M423.375 314.823C426.512 314.952 428.691 315.186 430.193 315.429C431.936 315.712 432.317 317.414 431.121 318.713L426.479 323.752M426.479 323.752L380.532 373.638M380.532 373.638C379.784 374.451 379.172 375.413 378.775 376.444M380.532 373.638L379.767 374.468C379.525 374.732 379.33 375.037 379.197 375.369C379.052 375.731 378.912 376.089 378.775 376.444" stroke="#164665" stroke-width="6"/>
<path d="M639.721 47.4512C601.492 46.2182 600.156 96.2591 604.267 121.434L587.31 122.975C581.145 132.84 584.741 143.526 587.31 147.636H695.214C700.146 135.306 697.269 127.085 695.214 124.517C696.447 122.05 684.423 121.434 678.257 121.434C678.257 101.397 687.506 48.9925 639.721 47.4512Z" fill="white" stroke="#164665" stroke-width="6"/>
<path d="M641.264 47.6205C651.972 47.6205 660.951 51.2944 668.38 58.6772C675.808 66.0594 679.498 74.9732 679.498 85.5971V122.761H690.594C692.756 122.761 694.532 123.497 696.085 125.053C697.544 126.515 698.283 128.171 698.372 130.152L698.382 130.552V140.701C698.382 142.862 697.646 144.638 696.09 146.191C694.53 147.747 692.75 148.483 690.59 148.487H591.941C589.773 148.487 587.994 147.751 586.442 146.196C584.982 144.733 584.244 143.078 584.155 141.102L584.146 140.703V130.554C584.147 128.392 584.883 126.616 586.438 125.064C587.901 123.605 589.557 122.866 591.538 122.777L591.938 122.768H603.03V85.6039C603.03 74.9752 606.72 66.0592 614.148 58.6772C621.577 51.2945 630.556 47.6206 641.264 47.6205ZM591.941 123.44C590.034 123.44 588.254 124.08 586.86 125.474C585.467 126.868 584.826 128.647 584.826 130.554V140.694C584.826 142.601 585.467 144.38 586.86 145.774C588.254 147.168 590.034 147.808 591.941 147.808H690.594C692.5 147.808 694.276 147.165 695.668 145.774C697.059 144.382 697.702 142.607 697.702 140.701V130.548C697.702 128.642 697.06 126.866 695.668 125.474C694.274 124.08 692.494 123.44 690.587 123.44H591.941ZM641.242 48.2993C630.9 48.3042 621.992 51.9269 614.69 59.1215C607.604 66.1047 603.933 74.6641 603.72 84.6313L603.71 85.5971V122.761H678.818V85.5971C678.818 75.2227 675.133 66.3367 667.811 59.1215C660.5 51.9181 651.587 48.2944 641.242 48.2993ZM641.264 66.5024C641.389 66.5024 641.438 66.5221 641.445 66.5248C641.45 66.5268 641.479 66.5377 641.536 66.5942C641.563 66.6211 641.576 66.6386 641.58 66.645C641.584 66.6509 641.585 66.6533 641.586 66.6547C641.587 66.6566 641.591 66.6666 641.595 66.6889C641.599 66.7126 641.605 66.7559 641.604 66.8217C641.604 66.9563 641.582 67.0115 641.578 67.0209C641.575 67.028 641.565 67.0541 641.514 67.1059C641.487 67.1332 641.469 67.1465 641.461 67.1518C641.454 67.1567 641.449 67.159 641.445 67.1606C641.443 67.1615 641.394 67.1821 641.264 67.1821C636.196 67.1822 631.78 69.0026 628.178 72.5727L628.176 72.5746C624.571 76.1527 622.721 80.5443 622.721 85.5903V101.006C622.721 101.131 622.701 101.18 622.698 101.187C622.696 101.192 622.685 101.219 622.629 101.277C622.602 101.304 622.585 101.317 622.578 101.322C622.572 101.326 622.57 101.327 622.568 101.328C622.567 101.328 622.556 101.332 622.533 101.336C622.509 101.341 622.467 101.345 622.401 101.345C622.268 101.345 622.213 101.324 622.202 101.32C622.195 101.317 622.169 101.307 622.116 101.255C622.089 101.228 622.075 101.209 622.07 101.202C622.066 101.195 622.064 101.191 622.062 101.187C622.062 101.185 622.041 101.137 622.041 101.006V85.5903C622.041 80.2444 623.897 75.7965 627.671 72.0717L627.672 72.0727C631.466 68.3371 635.942 66.5025 641.264 66.5024Z" stroke="#164665" stroke-width="6"/>
<path d="M699.752 22.3438C700.003 22.3393 700.252 22.3856 700.485 22.4795C700.717 22.5733 700.928 22.7135 701.105 22.8906C701.282 23.0679 701.422 23.2794 701.516 23.5117C701.61 23.744 701.656 23.9927 701.652 24.2432C701.648 24.4311 701.617 24.6171 701.558 24.7949L701.491 24.9697C701.389 25.1985 701.241 25.4044 701.058 25.5752L701.019 25.6113L700.982 25.6494L691.248 35.3818L691.211 35.4189L691.175 35.458C691.004 35.6414 690.798 35.7886 690.569 35.8906C690.34 35.9926 690.093 36.0473 689.842 36.0518C689.591 36.0562 689.342 36.0099 689.11 35.916C688.877 35.8221 688.666 35.6821 688.489 35.5049C688.312 35.3278 688.172 35.1168 688.078 34.8848C687.985 34.6524 687.938 34.4029 687.943 34.1523C687.947 33.9019 688.002 33.6546 688.104 33.4258C688.206 33.1969 688.353 32.9911 688.536 32.8203L688.575 32.7842L698.383 22.9766L698.419 22.9375C698.59 22.7542 698.797 22.6078 699.026 22.5059C699.255 22.4039 699.502 22.3482 699.752 22.3438ZM582.952 22.5869C583.431 22.5785 583.893 22.7545 584.245 23.0771L593.852 32.6836C594.174 33.0359 594.35 33.4978 594.342 33.9756C594.334 34.459 594.137 34.9207 593.795 35.2627C593.453 35.6043 592.992 35.7999 592.509 35.8086C592.034 35.817 591.574 35.6432 591.222 35.3242L581.604 25.707C581.284 25.3554 581.11 24.8954 581.118 24.4199C581.127 23.9366 581.323 23.4757 581.665 23.1338C582.007 22.7918 582.469 22.5954 582.952 22.5869ZM641.264 3C641.759 3.00007 642.233 3.19699 642.583 3.54688C642.933 3.89687 643.13 4.37135 643.13 4.86621V24.332C643.13 24.8268 642.933 25.3014 642.583 25.6514C642.233 26.0012 641.759 26.1982 641.264 26.1982C640.769 26.1982 640.294 26.0014 639.944 25.6514C639.594 25.3015 639.397 24.8268 639.397 24.332V4.86621C639.397 4.3714 639.594 3.89686 639.944 3.54688C640.294 3.19685 640.769 3 641.264 3Z" stroke="#164665" stroke-width="6"/>
</svg>
