<svg width="400" height="400" viewBox="0 0 400 400" fill="none" xmlns="http://www.w3.org/2000/svg">
<path d="M260.445 273.336C255.182 289.689 235.747 320.927 200.11 315.063C164.473 309.199 145.79 288.937 140.903 279.539C134.242 273.922 129.031 266.454 126.102 258.37C128.343 265.242 130.37 273.595 131.881 283.486C142.172 313.568 176.416 361.788 238.454 351.979C294.391 320.162 276.422 286.293 260.445 273.336Z" fill="#222E50"/>
<path d="M225.088 129.547C224.263 128.876 223.115 128.551 222.277 129.206C218.372 132.256 219.282 141.102 219.282 138.569C219.282 137.237 227.715 139.303 237.326 141.735C239.103 139.886 242.124 137.952 245.528 135.773C258.323 127.583 276.513 115.938 254.243 92.3311C255.596 95.4888 252.927 99.6615 251.423 101.353C252.551 117.706 236.762 132.93 232.815 132.93C230.158 132.93 227.448 131.467 225.088 129.547Z" fill="#222E50"/>
<path d="M251.423 101.353C252.927 99.6615 255.596 95.4888 254.243 92.3311C244.657 80.4896 219.733 63.7988 196.727 91.7672C193.719 95.7142 184.998 102.142 174.172 96.2779C162.586 90.0024 140.256 101.91 137.607 113.251C137.022 115.753 140.106 116.404 142.184 114.892C145.033 112.818 148.919 111.03 153.466 111.023C153.697 111.023 153.931 111.027 154.166 111.036C156.531 111.128 157.163 114.097 155.636 115.905C155.489 116.08 155.341 116.258 155.193 116.441C151.021 121.582 146.684 129.842 147.669 139.697C155.94 133.306 176.089 121.878 190.524 127.291C208.568 134.058 219.282 110.939 216.463 113.758C213.643 116.578 214.207 96.2779 221.538 105.3C227.402 112.518 243.905 105.676 251.423 101.353Z" fill="#222E50"/>
<path d="M276.234 339.874C293.714 329.16 324.953 295.779 310.067 247.962C292.044 190.069 221.122 198.3 216.168 198.875C216.008 198.894 215.916 198.904 215.899 198.904C211.83 199.089 204.958 196.508 209.467 184.82C209.477 184.796 209.486 184.771 209.496 184.747C209.625 184.413 209.82 184.108 210.063 183.845L210.11 183.794L226.919 165.544C228.268 164.08 227.773 162.36 225.783 162.278C225.515 162.267 225.228 162.258 224.921 162.252C204.625 161.829 267.998 162.738 273.092 162.811C273.331 162.815 273.532 162.801 273.753 162.71C276.882 161.414 285.937 150.031 300.249 113.009C300.281 112.926 300.314 112.842 300.346 112.758C300.773 111.652 301.808 110.905 302.987 110.794C303.069 110.786 303.151 110.778 303.234 110.77C309.207 110.181 317.806 108.343 320.509 104.345C321.506 102.869 319.96 101.353 318.179 101.353H293.61C292.297 101.353 291.108 102.104 290.545 103.29C283.246 118.652 269.016 146.163 263.829 147.027C260.438 147.592 247.635 144.348 237.326 141.735C227.715 139.303 219.282 137.237 219.282 138.569C219.282 141.102 218.372 132.256 222.277 129.206C223.115 128.551 224.263 128.876 225.088 129.547C227.448 131.467 230.158 132.93 232.815 132.93C236.762 132.93 252.551 117.706 251.423 101.353C243.905 105.676 227.402 112.518 221.538 105.3C214.207 96.2779 213.643 116.578 216.463 113.758C219.282 110.939 208.568 134.058 190.524 127.291C176.089 121.878 155.94 133.306 147.669 139.697L135.815 146.612C134.777 147.217 133.604 148.048 132.643 148.77L132.637 148.774C124.731 154.715 89.116 181.711 112.638 203.35C112.683 203.392 112.737 203.428 112.792 203.454C113.217 203.652 113.695 203.308 113.641 202.842C112.75 195.16 112.017 182.687 115.461 186.993C117.347 189.35 118.608 190.693 119.413 191.415C120.096 192.027 120.664 191.625 120.719 190.71C120.958 186.765 120.736 180.263 118.348 177.477C116.635 175.479 123.443 171.316 130.805 166.813C136.692 163.213 142.932 159.396 145.457 156.296C145.51 156.231 145.562 156.165 145.612 156.1C146.348 155.145 147.315 154.237 148.506 154.05L148.758 154.011L163.661 151.683C164.266 151.588 164.836 151.335 165.289 150.923C165.915 150.354 166.719 149.574 167.552 148.673C169.48 145.842 170.88 144.351 170.224 145.335C169.437 146.517 168.477 147.67 167.552 148.673C163.054 155.276 155.687 169.171 164.86 175.965C164.909 176.001 164.959 176.037 165.009 176.073C165.742 176.6 166.293 177.36 166.453 178.249C166.463 178.305 166.473 178.362 166.483 178.418C170.639 201.36 185.15 239.217 209.696 251.275C224.612 258.602 232.97 260.844 239.335 262.551C246.686 264.522 251.379 265.781 260.445 273.336C276.422 286.293 294.391 320.162 238.454 351.979C250.065 350.143 262.65 346.275 276.234 339.874Z" fill="#222E50"/>
<path fill-rule="evenodd" clip-rule="evenodd" d="M72.12 215.765C72.1196 215.749 72.1192 215.733 72.1189 215.718C72.1116 215.412 71.8349 214.963 72.1072 214.825C72.1243 214.816 72.145 214.812 72.1692 214.811C71.9304 214.814 71.9949 215.105 72.0598 215.399C72.0886 215.529 72.1174 215.659 72.12 215.765ZM125.416 256.332C125.628 257.015 125.857 257.695 126.102 258.37C125.875 257.676 125.646 256.996 125.416 256.332ZM144.055 192.509C143.835 192.262 143.715 191.918 143.441 191.733C143.422 191.719 143.402 191.709 143.382 191.7C143.604 191.792 143.738 192.009 143.871 192.227C143.943 192.346 144.016 192.465 144.104 192.563C144.087 192.545 144.071 192.527 144.055 192.509ZM166.483 178.418C166.473 178.362 166.463 178.305 166.453 178.249C166.293 177.36 165.742 176.6 165.009 176.073C164.959 176.037 164.909 176.001 164.86 175.965C165.678 176.571 166.302 177.416 166.483 178.418ZM210.11 183.794C209.836 184.091 209.613 184.443 209.467 184.82C209.477 184.796 209.486 184.771 209.496 184.747C209.625 184.413 209.82 184.108 210.063 183.845L210.11 183.794ZM300.249 113.009C300.731 111.763 301.904 110.901 303.234 110.77C303.151 110.778 303.069 110.786 302.987 110.794C301.808 110.905 300.773 111.652 300.346 112.758C300.314 112.842 300.281 112.926 300.249 113.009ZM148.758 154.011C147.414 154.221 146.315 155.242 145.457 156.296C145.51 156.231 145.562 156.165 145.612 156.1C146.348 155.145 147.315 154.237 148.506 154.05L148.758 154.011ZM153.466 111.023C156.135 111.02 156.875 114.368 155.193 116.441C155.341 116.258 155.489 116.08 155.636 115.905C157.163 114.097 156.531 111.128 154.166 111.036C153.931 111.027 153.697 111.023 153.466 111.023ZM170.224 145.335C170.88 144.351 169.48 145.842 167.552 148.673C168.477 147.67 169.437 146.517 170.224 145.335Z" fill="#222E50"/>
<path d="M129.061 224.842C122.767 234.43 122.143 245.805 125.416 256.332C125.646 256.996 125.875 257.676 126.102 258.37C129.031 266.454 134.242 273.922 140.903 279.539C154.002 264.006 172.878 224.96 144.104 192.563C144.087 192.545 144.071 192.527 144.055 192.509C143.835 192.262 143.715 191.918 143.441 191.733C143.422 191.719 143.402 191.709 143.382 191.7C142.591 191.376 141.408 194.891 139.667 200.061C137.3 207.091 133.903 217.183 129.061 224.842Z" fill="#222E50"/>
<path d="M72.12 215.765C72.6749 238.297 85.3184 282.591 131.881 283.486C130.37 273.595 128.343 265.242 126.102 258.37C125.857 257.695 125.628 257.015 125.416 256.332C120.435 241.986 114.573 234.669 110.95 233.795C92.5908 230.203 80.1976 220.713 74.9224 216.674C73.4127 215.518 72.4859 214.809 72.1692 214.811C72.145 214.812 72.1243 214.816 72.1072 214.825C71.8349 214.963 72.1116 215.412 72.1189 215.718C72.1192 215.733 72.1196 215.749 72.12 215.765Z" fill="#222E50"/>
<path d="M131.881 283.486C142.172 313.568 176.416 361.788 238.454 351.979M131.881 283.486C85.3184 282.591 72.6749 238.297 72.12 215.765M131.881 283.486C130.37 273.595 128.343 265.242 126.102 258.37M251.423 101.353C252.551 117.706 236.762 132.93 232.815 132.93C230.158 132.93 227.448 131.467 225.088 129.547C224.263 128.876 223.115 128.551 222.277 129.206C218.372 132.256 219.282 141.102 219.282 138.569C219.282 137.237 227.715 139.303 237.326 141.735M251.423 101.353C252.927 99.6615 255.596 95.4888 254.243 92.3311M251.423 101.353C243.905 105.676 227.402 112.518 221.538 105.3C214.207 96.2779 213.643 116.578 216.463 113.758C219.282 110.939 208.568 134.058 190.524 127.291C176.089 121.878 155.94 133.306 147.669 139.697M237.326 141.735C247.635 144.348 260.438 147.592 263.829 147.027C269.016 146.163 283.246 118.652 290.545 103.29M237.326 141.735C236.78 141.597 237.866 141.872 237.326 141.735ZM237.326 141.735C239.103 139.886 242.124 137.952 245.528 135.773C258.323 127.583 276.513 115.938 254.243 92.3311M254.243 92.3311C244.657 80.4896 219.733 63.7988 196.727 91.7672C193.719 95.7142 184.998 102.142 174.172 96.2779C162.586 90.0024 140.256 101.91 137.607 113.251M147.669 139.697L135.815 146.612M147.669 139.697C146.684 129.842 151.021 121.582 155.193 116.441M260.445 273.336C255.182 289.689 235.747 320.927 200.11 315.063C164.473 309.199 145.79 288.937 140.903 279.539M260.445 273.336C276.422 286.293 294.391 320.162 238.454 351.979M260.445 273.336C251.379 265.781 246.686 264.522 239.335 262.551C232.97 260.844 224.612 258.602 209.696 251.275C185.15 239.217 170.639 201.36 166.483 178.418M140.903 279.539C154.002 264.006 172.878 224.96 144.104 192.563M140.903 279.539C134.242 273.922 129.031 266.454 126.102 258.37M238.454 351.979C250.065 350.143 262.65 346.275 276.234 339.874C293.714 329.16 324.953 295.779 310.067 247.962C292.044 190.069 221.122 198.3 216.168 198.875C216.008 198.894 215.916 198.904 215.899 198.904C211.83 199.089 204.958 196.508 209.467 184.82M72.12 215.765C72.1174 215.659 72.0886 215.529 72.0598 215.399C71.9949 215.105 71.9304 214.814 72.1692 214.811M72.12 215.765C72.1196 215.749 72.1192 215.733 72.1189 215.718C72.1116 215.412 71.8349 214.963 72.1072 214.825C72.1243 214.816 72.145 214.812 72.1692 214.811M72.1692 214.811C72.4859 214.809 73.4127 215.518 74.9224 216.674C80.1976 220.713 92.5908 230.203 110.95 233.795C114.573 234.669 120.435 241.986 125.416 256.332M125.416 256.332C122.143 245.805 122.767 234.43 129.061 224.842C133.903 217.183 137.3 207.091 139.667 200.061C141.408 194.891 142.591 191.376 143.382 191.7M125.416 256.332C125.646 256.996 125.875 257.676 126.102 258.37M125.416 256.332C125.628 257.015 125.857 257.695 126.102 258.37M143.382 191.7C143.604 191.792 143.738 192.009 143.871 192.227C143.943 192.346 144.016 192.465 144.104 192.563M143.382 191.7C143.402 191.709 143.422 191.719 143.441 191.733C143.715 191.918 143.835 192.262 144.055 192.509C144.071 192.527 144.087 192.545 144.104 192.563M166.483 178.418C166.302 177.416 165.678 176.571 164.86 175.965M166.483 178.418C166.473 178.362 166.463 178.305 166.453 178.249C166.293 177.36 165.742 176.6 165.009 176.073C164.959 176.037 164.909 176.001 164.86 175.965M164.86 175.965C155.687 169.171 163.054 155.276 167.552 148.673M167.552 148.673C166.719 149.574 165.915 150.354 165.289 150.923M167.552 148.673C168.477 147.67 169.437 146.517 170.224 145.335C170.88 144.351 169.48 145.842 167.552 148.673ZM165.289 150.923C164.836 151.335 164.266 151.588 163.661 151.683M165.289 150.923C165.263 150.947 165.237 150.97 165.211 150.993C164.808 151.357 164.302 151.582 163.766 151.666L163.661 151.683M163.661 151.683L148.758 154.011M148.758 154.011C147.414 154.221 146.315 155.242 145.457 156.296M148.758 154.011L148.506 154.05C147.315 154.237 146.348 155.145 145.612 156.1C145.562 156.165 145.51 156.231 145.457 156.296M145.457 156.296C142.932 159.396 136.692 163.213 130.805 166.813C123.443 171.316 116.635 175.479 118.348 177.477C120.736 180.263 120.958 186.765 120.719 190.71M120.719 190.71C120.664 191.625 120.096 192.027 119.413 191.415M120.719 190.71C120.716 190.764 120.713 190.817 120.709 190.87C120.657 191.681 120.148 192.055 119.534 191.522C119.495 191.488 119.455 191.453 119.413 191.415M119.413 191.415C118.608 190.693 117.347 189.35 115.461 186.993C112.017 182.687 112.75 195.16 113.641 202.842M113.641 202.842C113.695 203.308 113.217 203.652 112.792 203.454M113.641 202.842V202.842C113.695 203.306 113.215 203.651 112.792 203.454V203.454M112.792 203.454C112.737 203.428 112.683 203.392 112.638 203.35M112.792 203.454V203.454C112.737 203.428 112.686 203.394 112.641 203.353C112.64 203.352 112.639 203.351 112.638 203.35M112.638 203.35C89.116 181.711 124.731 154.715 132.637 148.774L132.643 148.77M135.815 146.612L135.625 146.723C134.703 147.26 133.643 148.019 132.79 148.66C132.742 148.696 132.693 148.732 132.643 148.77M135.815 146.612C134.777 147.217 133.604 148.048 132.643 148.77M155.193 116.441C156.875 114.368 156.135 111.02 153.466 111.023M155.193 116.441C155.341 116.258 155.489 116.08 155.636 115.905C157.163 114.097 156.531 111.128 154.166 111.036C153.931 111.027 153.697 111.023 153.466 111.023M153.466 111.023C148.919 111.03 145.033 112.818 142.184 114.892M142.184 114.892C140.106 116.404 137.022 115.753 137.607 113.251M142.184 114.892C142.008 115.02 141.835 115.15 141.667 115.28C139.864 116.674 137.101 116.132 137.479 113.885C137.515 113.674 137.557 113.462 137.607 113.251M290.545 103.29C291.108 102.104 292.297 101.353 293.61 101.353M290.545 103.29C290.578 103.219 290.612 103.149 290.645 103.079C291.144 102.027 292.202 101.353 293.366 101.353H293.61M293.61 101.353H318.179M318.179 101.353C319.96 101.353 321.506 102.869 320.509 104.345M318.179 101.353H318.538C320.117 101.353 321.498 102.678 320.7 104.041C320.64 104.144 320.576 104.245 320.509 104.345M320.509 104.345C317.806 108.343 309.207 110.181 303.234 110.77M303.234 110.77C301.904 110.901 300.731 111.763 300.249 113.009M303.234 110.77C303.151 110.778 303.069 110.786 302.987 110.794C301.808 110.905 300.773 111.652 300.346 112.758C300.314 112.842 300.281 112.926 300.249 113.009M300.249 113.009C285.937 150.031 276.882 161.414 273.753 162.71M273.753 162.71C273.532 162.801 273.331 162.815 273.092 162.811M273.753 162.71C273.742 162.714 273.73 162.719 273.719 162.723C273.522 162.801 273.308 162.814 273.096 162.811C273.094 162.811 273.093 162.811 273.092 162.811M273.092 162.811C267.998 162.738 204.625 161.829 224.921 162.252C225.228 162.258 225.515 162.267 225.783 162.278M225.783 162.278C227.773 162.36 228.268 164.08 226.919 165.544M225.783 162.278C225.929 162.284 226.068 162.291 226.203 162.298C227.966 162.392 228.399 163.937 227.203 165.235L226.919 165.544M226.919 165.544L210.11 183.794M210.11 183.794C209.836 184.091 209.613 184.443 209.467 184.82M210.11 183.794L210.063 183.845C209.82 184.108 209.625 184.413 209.496 184.747C209.486 184.771 209.477 184.796 209.467 184.82" stroke="#6276AD" stroke-width="3"/>
<path d="M304.927 64.4667C290.943 64.0156 290.454 82.3217 291.958 91.5312L285.755 92.0951C283.499 95.7037 284.815 99.613 285.755 101.117H325.228C327.033 96.6058 325.98 93.5987 325.228 92.6589C325.679 91.7568 321.281 91.5312 319.025 91.5312C319.025 84.2011 322.409 65.0305 304.927 64.4667Z" fill="#222E50"/>
<path fill-rule="evenodd" clip-rule="evenodd" d="M301.477 74.4362C300.363 75.5422 299.805 76.8698 299.805 78.4189V84.0583C299.805 84.402 299.689 84.6919 299.456 84.9281C299.223 85.1643 298.933 85.2816 298.586 85.2799C298.239 85.2783 297.948 85.161 297.714 84.9281C297.479 84.6952 297.362 84.4052 297.362 84.0583V78.4189C297.362 76.171 298.158 74.2619 299.749 72.6916C301.342 71.1229 303.257 70.3386 305.492 70.3386C305.835 70.3386 306.125 70.4551 306.362 70.688C306.598 70.921 306.715 71.2109 306.713 71.5579C306.712 71.9048 306.594 72.1956 306.362 72.4302C306.129 72.6647 305.839 72.782 305.492 72.782C303.928 72.782 302.589 73.3334 301.477 74.4362Z" fill="#6276AD"/>
<path fill-rule="evenodd" clip-rule="evenodd" d="M287.448 102.525C286.361 102.525 285.432 102.139 284.66 101.365C283.888 100.591 283.501 99.6634 283.499 98.5818V94.8678C283.499 93.7829 283.886 92.8545 284.66 92.0823C285.434 91.3102 286.362 90.9234 287.446 90.9217H290.407V78.4238C290.407 74.2472 291.871 70.7043 294.798 67.795C297.726 64.8858 301.29 63.4312 305.492 63.4312C309.693 63.4312 313.257 64.8858 316.185 67.795C319.112 70.7043 320.576 74.2464 320.576 78.4214V90.9193H323.538C324.623 90.9193 325.551 91.3062 326.323 92.0799C327.096 92.8536 327.482 93.7821 327.484 94.8654V98.5793C327.484 99.6642 327.097 100.593 326.323 101.365C325.55 102.137 324.621 102.524 323.538 102.525H287.448ZM323.538 100.082H287.448C287.008 100.082 286.647 99.9411 286.366 99.6593C286.084 99.3775 285.943 99.0167 285.943 98.5769V94.8678C285.943 94.428 286.084 94.0672 286.366 93.7854C286.647 93.5036 287.008 93.3627 287.448 93.3627H323.535C323.975 93.3627 324.336 93.5036 324.618 93.7854C324.9 94.0672 325.04 94.4272 325.04 94.8654V98.5793C325.04 99.0175 324.9 99.3775 324.618 99.6593C324.336 99.9411 323.976 100.082 323.538 100.082ZM318.132 90.9193H292.851V78.4214C292.848 74.9126 294.078 71.9447 296.541 69.5176C299.004 67.0905 301.985 65.8762 305.484 65.8745C308.984 65.8729 311.966 67.0873 314.433 69.5176C316.899 71.948 318.132 74.9159 318.132 78.4214V90.9193Z" fill="#6276AD"/>
<path d="M305.492 47.1079C305.964 47.1079 306.417 47.2955 306.751 47.6293C307.084 47.9632 307.272 48.416 307.272 48.8881V56.009C307.272 56.4811 307.084 56.9339 306.751 57.2678C306.417 57.6016 305.964 57.7892 305.492 57.7892C305.019 57.7892 304.567 57.6016 304.233 57.2678C303.899 56.9339 303.711 56.4811 303.711 56.009V48.8881C303.711 48.416 303.899 47.9632 304.233 47.6293C304.567 47.2955 305.019 47.1079 305.492 47.1079ZM328.114 57.267L324.553 60.8274C324.39 61.0023 324.194 61.1426 323.975 61.2399C323.757 61.3372 323.521 61.3895 323.282 61.3937C323.043 61.398 322.806 61.354 322.584 61.2644C322.362 61.1749 322.161 61.0416 321.992 60.8726C321.823 60.7036 321.689 60.5022 321.6 60.2805C321.51 60.0589 321.466 59.8214 321.471 59.5824C321.475 59.3434 321.527 59.1076 321.624 58.8893C321.722 58.6709 321.862 58.4744 322.037 58.3114L325.598 54.751C325.761 54.576 325.957 54.4358 326.176 54.3385C326.394 54.2412 326.63 54.1888 326.869 54.1846C327.108 54.1804 327.345 54.2244 327.567 54.3139C327.789 54.4035 327.99 54.5367 328.159 54.7058C328.328 54.8748 328.461 55.0762 328.551 55.2978C328.64 55.5195 328.684 55.7569 328.68 55.996C328.676 56.235 328.624 56.4707 328.526 56.6891C328.429 56.9075 328.289 57.104 328.114 57.267ZM285.386 54.751C285.048 54.4365 284.602 54.2653 284.141 54.2734C283.679 54.2816 283.239 54.4684 282.913 54.7946C282.587 55.1207 282.4 55.5608 282.392 56.022C282.384 56.4832 282.555 56.9295 282.869 57.267L286.43 60.8274C286.768 61.1419 287.214 61.3131 287.675 61.3049C288.136 61.2968 288.577 61.11 288.903 60.7838C289.229 60.4576 289.416 60.0176 289.424 59.5564C289.432 59.0952 289.261 58.6488 288.946 58.3114L285.386 54.751Z" fill="#6276AD"/>
</svg>
